ffmpeg started on 2016-12-03 at 09:27:44
Report written to "Output/x264/results/ffmpeg/old_town_cross_2160p50placebo7000k.log"
Command line:
Tools/ffmpeg/ffmpeg -benchmark -y -i Input/y4m/old_town_cross_2160p50.y4m -c:v libx264 -preset placebo -b:v 7000k -an Output/x264/encoded/old_town_cross_2160p50placebo7000k.mkv
ffmpeg version N-82227-gdb23fde Copyright (c) 2000-2016 the FFmpeg developers
  built with gcc 5.4.0 (Ubuntu 5.4.0-6ubuntu1~16.04.2) 20160609
  configuration: --prefix=/home/jaroslav/ffmpeg_build --pkg-config-flags=--static --extra-cflags=-I/home/jaroslav/ffmpeg_build/include --extra-ldflags=-L/home/jaroslav/ffmpeg_build/lib --bindir=/home/jaroslav/bin --enable-gpl --enable-libass --enable-libfdk-aac --enable-libfreetype --enable-libmp3lame --enable-libopus --enable-libtheora --enable-libvorbis --enable-libvpx --enable-libx264 --enable-libx265 --enable-nvenc --enable-libmfx --enable-libxvid --enable-libgsm --enable-libopencore-amrnb --enable-version3 --enable-nonfree
  libavutil      55. 35.100 / 55. 35.100
  libavcodec     57. 66.101 / 57. 66.101
  libavformat    57. 57.100 / 57. 57.100
  libavdevice    57.  2.100 / 57.  2.100
  libavfilter     6. 66.100 /  6. 66.100
  libswscale      4.  3.100 /  4.  3.100
  libswresample   2.  4.100 /  2.  4.100
  libpostproc    54.  2.100 / 54.  2.100
Input #0, yuv4mpegpipe, from 'Input/y4m/old_town_cross_2160p50.y4m':
  Duration: 00:00:10.00, start: 0.000000, bitrate: 4976642 kb/s
    Stream #0:0: Video: rawvideo (I420 / 0x30323449), yuv420p(progressive), 3840x2160, SAR 1:1 DAR 16:9, 50 fps, 50 tbr, 50 tbn, 50 tbc
[libx264 @ 0x43a4120] using SAR=1/1
[libx264 @ 0x43a4120] DPB size (16 frames, 518400 mbs) > level limit (5 frames, 184320 mbs)
[libx264 @ 0x43a4120] using cpu capabilities: MMX2 SSE2Fast SSSE3 SSE4.2 AVX FMA3 AVX2 LZCNT BMI2
[libx264 @ 0x43a4120] profile High, level 5.2
[libx264 @ 0x43a4120] 264 - core 148 - H.264/MPEG-4 AVC codec - Copyleft 2003-2016 - http://www.videolan.org/x264.html - options: cabac=1 ref=16 deblock=1:0:0 analyse=0x3:0x133 me=tesa subme=11 psy=1 psy_rd=1.00:0.00 mixed_ref=1 me_range=24 chroma_me=1 trellis=2 8x8dct=1 cqm=0 deadzone=21,11 fast_pskip=0 chroma_qp_offset=-2 threads=6 lookahead_threads=1 sliced_threads=0 nr=0 decimate=1 interlaced=0 bluray_compat=0 constrained_intra=0 bframes=16 b_pyramid=2 b_adapt=2 b_bias=0 direct=3 weightb=1 open_gop=0 weightp=2 keyint=250 keyint_min=25 scenecut=40 intra_refresh=0 rc_lookahead=60 rc=abr mbtree=1 bitrate=7000 ratetol=1.0 qcomp=0.60 qpmin=0 qpmax=69 qpstep=4 ip_ratio=1.40 aq=1:1.00
Output #0, matroska, to 'Output/x264/encoded/old_town_cross_2160p50placebo7000k.mkv':
  Metadata:
    encoder         : Lavf57.57.100
    Stream #0:0: Video: h264 (libx264) (H264 / 0x34363248), yuv420p, 3840x2160 [SAR 1:1 DAR 16:9], q=-1--1, 7000 kb/s, 50 fps, 1k tbn, 50 tbc
    Metadata:
      encoder         : Lavc57.66.101 libx264
    Side data:
      cpb: bitrate max/min/avg: 0/0/7000000 buffer size: 0 vbv_delay: -1
Stream mapping:
  Stream #0:0 -> #0:0 (rawvideo (native) -> h264 (libx264))
Press [q] to stop, [?] for help
frame=   58 fps=0.0 q=0.0 size=       0kB time=00:00:00.00 bitrate=N/A speed=   0x    frame=   84 fps=3.3 q=0.0 size=       0kB time=00:00:00.00 bitrate=N/A speed=   0x    frame=   89 fps=3.2 q=37.0 size=       1kB time=-00:00:00.01 bitrate=N/A speed=N/A    frame=   90 fps=3.0 q=37.0 size=       1kB time=00:00:00.00 bitrate=5888.0kbits/s speed=3.32e-05x    frame=   91 fps=2.7 q=37.0 size=       1kB time=00:00:00.02 bitrate= 280.4kbits/s speed=0.000614x    frame=   92 fps=2.6 q=37.0 size=       1kB time=00:00:00.04 bitrate= 143.6kbits/s speed=0.00117x    frame=   95 fps=2.7 q=37.0 size=       1kB time=00:00:00.10 bitrate=  58.3kbits/s speed=0.00283x    frame=   96 fps=2.5 q=37.0 size=       1kB time=00:00:00.12 bitrate=  48.7kbits/s speed=0.00315x    frame=   97 fps=2.3 q=37.0 size=       1kB time=00:00:00.14 bitrate=  41.8kbits/s speed=0.0033x    frame=   98 fps=2.2 q=45.0 size=       1kB time=00:00:00.16 bitrate=  36.6kbits/s speed=0.00369x    frame=  101 fps=2.3 q=38.0 size=       1kB time=00:00:00.22 bitrate=  26.6kbits/s speed=0.00499x    frame=  102 fps=2.2 q=39.0 size=       1kB time=00:00:00.24 bitrate=  24.4kbits/s speed=0.00522x    frame=  103 fps=2.1 q=40.0 size=       1kB time=00:00:00.26 bitrate=  22.6kbits/s speed=0.00522x    frame=  106 fps=2.0 q=43.0 size=       1kB time=00:00:00.32 bitrate=  18.3kbits/s speed=0.00595x    frame=  109 fps=1.9 q=43.0 size=       1kB time=00:00:00.38 bitrate=  15.5kbits/s speed=0.00664x    frame=  112 fps=1.9 q=44.0 size=       1kB time=00:00:00.44 bitrate=  13.4kbits/s speed=0.00743x    frame=  114 fps=1.8 q=43.0 size=       1kB time=00:00:00.48 bitrate=  12.2kbits/s speed=0.00755x    frame=  115 fps=1.8 q=43.0 size=       1kB time=00:00:00.50 bitrate=  11.8kbits/s speed=0.00778x    frame=  116 fps=1.8 q=42.0 size=       1kB time=00:00:00.52 bitrate=  11.3kbits/s speed=0.00799x    frame=  118 fps=1.8 q=42.0 size=       1kB time=00:00:00.56 bitrate=  10.5kbits/s speed=0.00854x    frame=  119 fps=1.8 q=42.0 size=       1kB time=00:00:00.58 bitrate=  10.1kbits/s speed=0.00866x    frame=  120 fps=1.7 q=41.0 size=       1kB time=00:00:00.60 bitrate=   9.8kbits/s speed=0.0085x    frame=  121 fps=1.7 q=41.0 size=       1kB time=00:00:00.62 bitrate=   9.5kbits/s speed=0.00861x    frame=  122 fps=1.7 q=38.0 size=       1kB time=00:00:00.64 bitrate=   9.2kbits/s speed=0.00871x    frame=  124 fps=1.7 q=40.0 size=       1kB time=00:00:00.68 bitrate=   8.6kbits/s speed=0.00917x    frame=  125 fps=1.6 q=40.0 size=       1kB time=00:00:00.70 bitrate=   8.4kbits/s speed=0.00922x    frame=  126 fps=1.6 q=40.0 size=       1kB time=00:00:00.72 bitrate=   8.2kbits/s speed=0.00919x    frame=  127 fps=1.6 q=40.0 size=       1kB time=00:00:00.74 bitrate=   7.9kbits/s speed=0.00927x    frame=  128 fps=1.5 q=39.0 size=       1kB time=00:00:00.76 bitrate=   7.7kbits/s speed=0.0088x    frame=  129 fps=1.5 q=39.0 size=       1kB time=00:00:00.78 bitrate=   7.5kbits/s speed=0.0089x    frame=  130 fps=1.5 q=39.0 size=       1kB time=00:00:00.80 bitrate=   7.4kbits/s speed=0.00901x    frame=  134 fps=1.4 q=37.0 size=       1kB time=00:00:00.88 bitrate=   6.7kbits/s speed=0.00914x    frame=  136 fps=1.4 q=38.0 size=       1kB time=00:00:00.92 bitrate=   6.4kbits/s speed=0.00941x    frame=  137 fps=1.4 q=38.0 size=       1kB time=00:00:00.94 bitrate=   6.3kbits/s speed=0.00948x    frame=  140 fps=1.2 q=37.0 size=       1kB time=00:00:01.00 bitrate=   5.9kbits/s speed=0.00884x    frame=  141 fps=1.2 q=37.0 size=       1kB time=00:00:01.02 bitrate=   5.8kbits/s speed=0.00894x    frame=  142 fps=1.2 q=37.0 size=       1kB time=00:00:01.04 bitrate=   5.7kbits/s speed=0.00903x    frame=  146 fps=1.2 q=37.0 size=       1kB time=00:00:01.12 bitrate=   5.3kbits/s speed=0.00901x    frame=  148 fps=1.2 q=37.0 size=       1kB time=00:00:01.16 bitrate=   5.1kbits/s speed=0.00913x    frame=  149 fps=1.2 q=37.0 size=       1kB time=00:00:01.18 bitrate=   5.0kbits/s speed=0.00919x    frame=  150 fps=1.1 q=37.0 size=       1kB time=00:00:01.20 bitrate=   4.9kbits/s speed=0.00856x    frame=  151 fps=1.1 q=36.0 size=       1kB time=00:00:01.22 bitrate=   4.8kbits/s speed=0.00863x    frame=  152 fps=1.1 q=36.0 size=       1kB time=00:00:01.24 bitrate=   4.7kbits/s speed=0.00869x    frame=  156 fps=1.0 q=36.0 size=       1kB time=00:00:01.32 bitrate=   4.5kbits/s speed=0.00855x    frame=  157 fps=1.0 q=36.0 size=       1kB time=00:00:01.34 bitrate=   4.4kbits/s speed=0.00865x    frame=  158 fps=1.0 q=36.0 size=       1kB time=00:00:01.36 bitrate=   4.3kbits/s speed=0.0087x    frame=  160 fps=0.9 q=36.0 size=       1kB time=00:00:01.40 bitrate=   4.2kbits/s speed=0.00831x    frame=  161 fps=0.9 q=36.0 size=       1kB time=00:00:01.42 bitrate=   4.1kbits/s speed=0.00832x    frame=  162 fps=0.9 q=36.0 size=       1kB time=00:00:01.44 bitrate=   4.1kbits/s speed=0.00835x    frame=  164 fps=0.9 q=36.0 size=       1kB time=00:00:01.48 bitrate=   4.0kbits/s speed=0.00843x    frame=  166 fps=0.9 q=36.0 size=       1kB time=00:00:01.52 bitrate=   3.9kbits/s speed=0.00822x    frame=  167 fps=0.9 q=36.0 size=       1kB time=00:00:01.54 bitrate=   3.8kbits/s speed=0.00825x    frame=  168 fps=0.9 q=36.0 size=       1kB time=00:00:01.56 bitrate=   3.8kbits/s speed=0.00824x    frame=  170 fps=0.8 q=36.0 size=       1kB time=00:00:01.60 bitrate=   3.7kbits/s speed=0.00782x    frame=  171 fps=0.8 q=36.0 size=       1kB time=00:00:01.62 bitrate=   3.6kbits/s speed=0.00787x    frame=  172 fps=0.8 q=36.0 size=       1kB time=00:00:01.64 bitrate=   3.6kbits/s speed=0.00791x    frame=  176 fps=0.8 q=36.0 size=       1kB time=00:00:01.72 bitrate=   3.4kbits/s speed=0.0078x    frame=  177 fps=0.8 q=36.0 size=       1kB time=00:00:01.74 bitrate=   3.4kbits/s speed=0.00782x    frame=  178 fps=0.8 q=36.0 size=       1kB time=00:00:01.76 bitrate=   3.3kbits/s speed=0.00788x    frame=  179 fps=0.8 q=36.0 size=       1kB time=00:00:01.78 bitrate=   3.3kbits/s speed=0.00791x    frame=  181 fps=0.8 q=36.0 size=       1kB time=00:00:01.82 bitrate=   3.2kbits/s speed=0.00755x    frame=  182 fps=0.8 q=36.0 size=       1kB time=00:00:01.84 bitrate=   3.2kbits/s speed=0.00759x    frame=  183 fps=0.8 q=36.0 size=       1kB time=00:00:01.86 bitrate=   3.2kbits/s speed=0.00763x    frame=  185 fps=0.8 q=35.0 size=       1kB time=00:00:01.90 bitrate=   3.1kbits/s speed=0.00775x    frame=  187 fps=0.7 q=35.0 size=       1kB time=00:00:01.94 bitrate=   3.0kbits/s speed=0.00756x    frame=  188 fps=0.7 q=35.0 size=       1kB time=00:00:01.96 bitrate=   3.0kbits/s speed=0.00751x    frame=  190 fps=0.7 q=35.0 size=       1kB time=00:00:02.00 bitrate=   2.9kbits/s speed=0.00763x    frame=  191 fps=0.7 q=35.0 size=       1kB time=00:00:02.02 bitrate=   2.9kbits/s speed=0.00764x    frame=  192 fps=0.7 q=35.0 size=       1kB time=00:00:02.04 bitrate=   2.9kbits/s speed=0.00732x    frame=  193 fps=0.7 q=35.0 size=       1kB time=00:00:02.06 bitrate=   2.9kbits/s speed=0.00735x    frame=  194 fps=0.7 q=35.0 size=       1kB time=00:00:02.08 bitrate=   2.8kbits/s speed=0.00739x    frame=  198 fps=0.7 q=35.0 size=       1kB time=00:00:02.16 bitrate=   2.7kbits/s speed=0.00734x    frame=  199 fps=0.7 q=35.0 size=       1kB time=00:00:02.18 bitrate=   2.7kbits/s speed=0.00726x    frame=  200 fps=0.7 q=35.0 size=       1kB time=00:00:02.20 bitrate=   2.7kbits/s speed=0.0073x    frame=  202 fps=0.7 q=35.0 size=       1kB time=00:00:02.24 bitrate=   2.6kbits/s speed=0.0074x    frame=  203 fps=0.6 q=35.0 size=       1kB time=00:00:02.26 bitrate=   2.6kbits/s speed=0.0072x    frame=  204 fps=0.6 q=35.0 size=       1kB time=00:00:02.28 bitrate=   2.6kbits/s speed=0.00722x    frame=  205 fps=0.6 q=35.0 size=       1kB time=00:00:02.30 bitrate=   2.6kbits/s speed=0.00722x    frame=  206 fps=0.6 q=35.0 size=       1kB time=00:00:02.32 bitrate=   2.5kbits/s speed=0.00726x    frame=  207 fps=0.6 q=35.0 size=       1kB time=00:00:02.34 bitrate=   2.5kbits/s speed=0.0073x    frame=  209 fps=0.6 q=35.0 size=       1kB time=00:00:02.38 bitrate=   2.5kbits/s speed=0.00718x    frame=  210 fps=0.6 q=35.0 size=       1kB time=00:00:02.40 bitrate=   2.5kbits/s speed=0.00702x    frame=  211 fps=0.6 q=35.0 size=       1kB time=00:00:02.42 bitrate=   2.4kbits/s speed=0.00705x    frame=  212 fps=0.6 q=35.0 size=       1kB time=00:00:02.44 bitrate=   2.4kbits/s speed=0.00708x    frame=  215 fps=0.6 q=35.0 size=       1kB time=00:00:02.50 bitrate=   2.4kbits/s speed=0.00723x    frame=  216 fps=0.6 q=35.0 size=       1kB time=00:00:02.52 bitrate=   2.3kbits/s speed=0.00703x    frame=  217 fps=0.6 q=35.0 size=       1kB time=00:00:02.54 bitrate=   2.3kbits/s speed=0.00706x    frame=  218 fps=0.6 q=35.0 size=       1kB time=00:00:02.56 bitrate=   2.3kbits/s speed=0.00705x    frame=  220 fps=0.6 q=35.0 size=       1kB time=00:00:02.60 bitrate=   2.3kbits/s speed=0.00715x    frame=  221 fps=0.6 q=35.0 size=       1kB time=00:00:02.62 bitrate=   2.2kbits/s speed=0.0069x    frame=  222 fps=0.6 q=35.0 size=       1kB time=00:00:02.64 bitrate=   2.2kbits/s speed=0.00693x    frame=  223 fps=0.6 q=35.0 size=       1kB time=00:00:02.66 bitrate=   2.2kbits/s speed=0.00695x    frame=  227 fps=0.6 q=35.0 size=       1kB time=00:00:02.74 bitrate=   2.1kbits/s speed=0.00692x    frame=  228 fps=0.6 q=35.0 size=       1kB time=00:00:02.76 bitrate=   2.1kbits/s speed=0.00691x    frame=  229 fps=0.6 q=35.0 size=       1kB time=00:00:02.78 bitrate=   2.1kbits/s speed=0.00695x    frame=  231 fps=0.6 q=35.0 size=       1kB time=00:00:02.82 bitrate=   2.1kbits/s speed=0.00696x    frame=  232 fps=0.6 q=35.0 size=       1kB time=00:00:02.84 bitrate=   2.1kbits/s speed=0.00685x    frame=  233 fps=0.6 q=35.0 size=       1kB time=00:00:02.86 bitrate=   2.1kbits/s speed=0.00685x    frame=  234 fps=0.6 q=35.0 size=       1kB time=00:00:02.88 bitrate=   2.0kbits/s speed=0.00687x    frame=  235 fps=0.6 q=35.0 size=       1kB time=00:00:02.90 bitrate=   2.0kbits/s speed=0.0069x    frame=  237 fps=0.6 q=35.0 size=       1kB time=00:00:02.94 bitrate=   2.0kbits/s speed=0.00695x    frame=  238 fps=0.6 q=35.0 size=       1kB time=00:00:02.96 bitrate=   2.0kbits/s speed=0.00685x    frame=  239 fps=0.5 q=35.0 size=       1kB time=00:00:02.98 bitrate=   2.0kbits/s speed=0.00684x    frame=  240 fps=0.5 q=35.0 size=       1kB time=00:00:03.00 bitrate=   2.0kbits/s speed=0.00672x    frame=  241 fps=0.5 q=35.0 size=       1kB time=00:00:03.02 bitrate=   1.9kbits/s speed=0.00674x    frame=  242 fps=0.5 q=35.0 size=       1kB time=00:00:03.04 bitrate=   1.9kbits/s speed=0.00677x    frame=  246 fps=0.5 q=35.0 size=       1kB time=00:00:03.12 bitrate=   1.9kbits/s speed=0.00673x    frame=  247 fps=0.5 q=35.0 size=       1kB time=00:00:03.14 bitrate=   1.9kbits/s speed=0.00673x    frame=  248 fps=0.5 q=35.0 size=       1kB time=00:00:03.16 bitrate=   1.9kbits/s speed=0.00676x    frame=  249 fps=0.5 q=35.0 size=       1kB time=00:00:03.18 bitrate=   1.9kbits/s speed=0.00679x    frame=  251 fps=0.5 q=35.0 size=       1kB time=00:00:03.22 bitrate=   1.8kbits/s speed=0.00672x    frame=  252 fps=0.5 q=35.0 size=       1kB time=00:00:03.24 bitrate=   1.8kbits/s speed=0.00668x    frame=  253 fps=0.5 q=35.0 size=       1kB time=00:00:03.26 bitrate=   1.8kbits/s speed=0.00669x    frame=  255 fps=0.5 q=35.0 size=       1kB time=00:00:03.30 bitrate=   1.8kbits/s speed=0.00676x    frame=  257 fps=0.5 q=35.0 size=       1kB time=00:00:03.34 bitrate=   1.8kbits/s speed=0.00676x    frame=  258 fps=0.5 q=35.0 size=       1kB time=00:00:03.36 bitrate=   1.8kbits/s speed=0.00669x    frame=  259 fps=0.5 q=35.0 size=       1kB time=00:00:03.38 bitrate=   1.7kbits/s speed=0.00662x    frame=  260 fps=0.5 q=35.0 size=       1kB time=00:00:03.40 bitrate=   1.7kbits/s speed=0.00664x    frame=  261 fps=0.5 q=35.0 size=       1kB time=00:00:03.42 bitrate=   1.7kbits/s speed=0.00666x    frame=  264 fps=0.5 q=35.0 size=       1kB time=00:00:03.48 bitrate=   1.7kbits/s speed=0.00672x    frame=  265 fps=0.5 q=35.0 size=       1kB time=00:00:03.50 bitrate=   1.7kbits/s speed=0.0066x    frame=  266 fps=0.5 q=35.0 size=       1kB time=00:00:03.52 bitrate=   1.7kbits/s speed=0.00661x    frame=  267 fps=0.5 q=35.0 size=       1kB time=00:00:03.54 bitrate=   1.7kbits/s speed=0.00663x    frame=  268 fps=0.5 q=35.0 size=       1kB time=00:00:03.56 bitrate=   1.7kbits/s speed=0.00665x    frame=  270 fps=0.5 q=35.0 size=       1kB time=00:00:03.60 bitrate=   1.6kbits/s speed=0.00657x    frame=  271 fps=0.5 q=35.0 size=       1kB time=00:00:03.62 bitrate=   1.6kbits/s speed=0.00659x    frame=  272 fps=0.5 q=35.0 size=       1kB time=00:00:03.64 bitrate=   1.6kbits/s speed=0.00661x    frame=  274 fps=0.5 q=35.0 size=       1kB time=00:00:03.68 bitrate=   1.6kbits/s speed=0.00666x    frame=  276 fps=0.5 q=35.0 size=       1kB time=00:00:03.72 bitrate=   1.6kbits/s speed=0.00653x    frame=  278 fps=0.5 q=34.0 size=       1kB time=00:00:03.76 bitrate=   1.6kbits/s speed=0.00658x    frame=  280 fps=0.5 q=35.0 size=       1kB time=00:00:03.80 bitrate=   1.5kbits/s speed=0.00663x    frame=  282 fps=0.5 q=35.0 size=       1kB time=00:00:03.84 bitrate=   1.5kbits/s speed=0.00653x    frame=  284 fps=0.5 q=35.0 size=       1kB time=00:00:03.88 bitrate=   1.5kbits/s speed=0.00652x    frame=  285 fps=0.5 q=35.0 size=       1kB time=00:00:03.90 bitrate=   1.5kbits/s speed=0.00653x    frame=  286 fps=0.5 q=35.0 size=       1kB time=00:00:03.92 bitrate=   1.5kbits/s speed=0.00654x    frame=  288 fps=0.5 q=35.0 size=       1kB time=00:00:03.96 bitrate=   1.5kbits/s speed=0.00657x    frame=  289 fps=0.5 q=35.0 size=       1kB time=00:00:03.98 bitrate=   1.5kbits/s speed=0.0066x    frame=  290 fps=0.5 q=35.0 size=       1kB time=00:00:04.00 bitrate=   1.5kbits/s speed=0.0065x    frame=  291 fps=0.5 q=35.0 size=       1kB time=00:00:04.02 bitrate=   1.5kbits/s speed=0.00652x    frame=  292 fps=0.5 q=35.0 size=       1kB time=00:00:04.04 bitrate=   1.5kbits/s speed=0.00654x    frame=  293 fps=0.5 q=35.0 size=       1kB time=00:00:04.06 bitrate=   1.4kbits/s speed=0.00656x    frame=  294 fps=0.5 q=35.0 size=       1kB time=00:00:04.08 bitrate=   1.4kbits/s speed=0.00656x    frame=  295 fps=0.5 q=35.0 size=       1kB time=00:00:04.10 bitrate=   1.4kbits/s speed=0.00657x    frame=  296 fps=0.5 q=35.0 size=       1kB time=00:00:04.12 bitrate=   1.4kbits/s speed=0.0065x    frame=  297 fps=0.5 q=35.0 size=       1kB time=00:00:04.14 bitrate=   1.4kbits/s speed=0.00642x    frame=  298 fps=0.5 q=35.0 size=       1kB time=00:00:04.16 bitrate=   1.4kbits/s speed=0.00644x    frame=  299 fps=0.5 q=35.0 size=       1kB time=00:00:04.18 bitrate=   1.4kbits/s speed=0.00646x    frame=  302 fps=0.5 q=35.0 size=       1kB time=00:00:04.24 bitrate=   1.4kbits/s speed=0.00654x    frame=  303 fps=0.5 q=35.0 size=       1kB time=00:00:04.26 bitrate=   1.4kbits/s speed=0.00643x    frame=  304 fps=0.5 q=35.0 size=       1kB time=00:00:04.28 bitrate=   1.4kbits/s speed=0.00645x    frame=  305 fps=0.5 q=35.0 size=       1kB time=00:00:04.30 bitrate=   1.4kbits/s speed=0.00647x    frame=  306 fps=0.5 q=35.0 size=       1kB time=00:00:04.32 bitrate=   1.4kbits/s speed=0.00649x    frame=  307 fps=0.5 q=35.0 size=       1kB time=00:00:04.34 bitrate=   1.4kbits/s speed=0.00639x    frame=  308 fps=0.5 q=35.0 size=       1kB time=00:00:04.36 bitrate=   1.4kbits/s speed=0.00641x    frame=  309 fps=0.5 q=35.0 size=       1kB time=00:00:04.38 bitrate=   1.3kbits/s speed=0.00641x    frame=  311 fps=0.5 q=35.0 size=       1kB time=00:00:04.42 bitrate=   1.3kbits/s speed=0.00645x    frame=  312 fps=0.5 q=35.0 size=       1kB time=00:00:04.44 bitrate=   1.3kbits/s speed=0.00647x    frame=  313 fps=0.4 q=35.0 size=       1kB time=00:00:04.46 bitrate=   1.3kbits/s speed=0.0064x    frame=  314 fps=0.4 q=35.0 size=       1kB time=00:00:04.48 bitrate=   1.3kbits/s speed=0.0064x    frame=  315 fps=0.4 q=35.0 size=       1kB time=00:00:04.50 bitrate=   1.3kbits/s speed=0.00642x    frame=  316 fps=0.4 q=35.0 size=       1kB time=00:00:04.52 bitrate=   1.3kbits/s speed=0.00644x    frame=  317 fps=0.5 q=35.0 size=       1kB time=00:00:04.54 bitrate=   1.3kbits/s speed=0.00646x    frame=  318 fps=0.5 q=35.0 size=       1kB time=00:00:04.56 bitrate=   1.3kbits/s speed=0.00646x    frame=  319 fps=0.4 q=35.0 size=       1kB time=00:00:04.58 bitrate=   1.3kbits/s speed=0.0063x    frame=  320 fps=0.4 q=35.0 size=       1kB time=00:00:04.60 bitrate=   1.3kbits/s speed=0.00632x    frame=  321 fps=0.4 q=35.0 size=       1kB time=00:00:04.62 bitrate=   1.3kbits/s speed=0.00634x    frame=  325 fps=0.4 q=35.0 size=       1kB time=00:00:04.70 bitrate=   1.3kbits/s speed=0.00632x    frame=  326 fps=0.4 q=35.0 size=       1kB time=00:00:04.72 bitrate=   1.2kbits/s speed=0.00633x    frame=  327 fps=0.4 q=35.0 size=       1kB time=00:00:04.74 bitrate=   1.2kbits/s speed=0.00633x    frame=  329 fps=0.4 q=35.0 size=       1kB time=00:00:04.78 bitrate=   1.2kbits/s speed=0.0063x    frame=  330 fps=0.4 q=35.0 size=       1kB time=00:00:04.80 bitrate=   1.2kbits/s speed=0.00632x    frame=  331 fps=0.4 q=35.0 size=       1kB time=00:00:04.82 bitrate=   1.2kbits/s speed=0.00631x    frame=  332 fps=0.4 q=32.0 size=       1kB time=00:00:04.84 bitrate=   1.2kbits/s speed=0.00631x    frame=  333 fps=0.4 q=35.0 size=       1kB time=00:00:04.86 bitrate=   1.2kbits/s speed=0.00632x    frame=  335 fps=0.4 q=35.0 size=       1kB time=00:00:04.90 bitrate=   1.2kbits/s speed=0.00632x    frame=  336 fps=0.4 q=35.0 size=       1kB time=00:00:04.92 bitrate=   1.2kbits/s speed=0.00634x    frame=  337 fps=0.4 q=35.0 size=    3888kB time=00:00:04.94 bitrate=6446.7kbits/s speed=0.00635x    frame=  341 fps=0.4 q=35.0 size=    3888kB time=00:00:05.02 bitrate=6344.0kbits/s speed=0.00642x    frame=  342 fps=0.4 q=35.0 size=    3888kB time=00:00:05.04 bitrate=6318.8kbits/s speed=0.00642x    frame=  343 fps=0.4 q=37.0 size=    3888kB time=00:00:05.06 bitrate=6293.9kbits/s speed=0.00642x    frame=  347 fps=0.4 q=36.0 size=    3888kB time=00:00:05.14 bitrate=6195.9kbits/s speed=0.00651x    frame=  348 fps=0.4 q=36.0 size=    3888kB time=00:00:05.16 bitrate=6171.9kbits/s speed=0.00652x    frame=  349 fps=0.4 q=36.0 size=    3888kB time=00:00:05.18 bitrate=6148.1kbits/s speed=0.0065x    frame=  350 fps=0.4 q=36.0 size=    3888kB time=00:00:05.20 bitrate=6124.4kbits/s speed=0.00652x    frame=  351 fps=0.4 q=36.0 size=    3888kB time=00:00:05.22 bitrate=6101.0kbits/s speed=0.00653x    frame=  354 fps=0.4 q=36.0 size=    3888kB time=00:00:05.28 bitrate=6031.7kbits/s speed=0.0066x    frame=  355 fps=0.4 q=37.0 size=    3888kB time=00:00:05.30 bitrate=6008.9kbits/s speed=0.00657x    frame=  356 fps=0.4 q=37.0 size=    3888kB time=00:00:05.32 bitrate=5986.3kbits/s speed=0.00658x    frame=  357 fps=0.4 q=37.0 size=    3888kB time=00:00:05.34 bitrate=5963.9kbits/s speed=0.00658x    frame=  358 fps=0.4 q=36.0 size=    3888kB time=00:00:05.36 bitrate=5941.7kbits/s speed=0.0066x    frame=  359 fps=0.4 q=36.0 size=    3888kB time=00:00:05.38 bitrate=5919.6kbits/s speed=0.00659x    frame=  360 fps=0.4 q=36.0 size=    3888kB time=00:00:05.40 bitrate=5897.6kbits/s speed=0.00661x    frame=  361 fps=0.4 q=36.0 size=    3888kB time=00:00:05.42 bitrate=5875.9kbits/s speed=0.00661x    frame=  363 fps=0.4 q=36.0 size=    3888kB time=00:00:05.46 bitrate=5832.9kbits/s speed=0.00664x    frame=  364 fps=0.4 q=36.0 size=    3888kB time=00:00:05.48 bitrate=5811.6kbits/s speed=0.00666x    frame=  365 fps=0.4 q=36.0 size=    3888kB time=00:00:05.50 bitrate=5790.4kbits/s speed=0.00664x    frame=  367 fps=0.4 q=36.0 size=    3888kB time=00:00:05.54 bitrate=5748.6kbits/s speed=0.00668x    frame=  368 fps=0.4 q=36.0 size=    3888kB time=00:00:05.56 bitrate=5728.0kbits/s speed=0.00669x    frame=  369 fps=0.4 q=36.0 size=    3888kB time=00:00:05.58 bitrate=5707.4kbits/s speed=0.00669x    frame=  370 fps=0.4 q=36.0 size=    3888kB time=00:00:05.60 bitrate=5687.1kbits/s speed=0.0067x    frame=  371 fps=0.4 q=36.0 size=    3888kB time=00:00:05.62 bitrate=5666.8kbits/s speed=0.00667x    frame=  374 fps=0.4 q=36.0 size=    3888kB time=00:00:05.68 bitrate=5607.0kbits/s speed=0.00667x    frame=  375 fps=0.4 q=36.0 size=    3888kB time=00:00:05.70 bitrate=5587.3kbits/s speed=0.00669x    frame=  376 fps=0.4 q=36.0 size=    3888kB time=00:00:05.72 bitrate=5567.8kbits/s speed=0.0067x    frame=  378 fps=0.4 q=36.0 size=    3888kB time=00:00:05.76 bitrate=5529.1kbits/s speed=0.00674x    frame=  379 fps=0.4 q=36.0 size=    3888kB time=00:00:05.78 bitrate=5510.0kbits/s speed=0.00676x    frame=  380 fps=0.4 q=36.0 size=    3888kB time=00:00:05.80 bitrate=5491.0kbits/s speed=0.00672x    frame=  381 fps=0.4 q=36.0 size=    3888kB time=00:00:05.82 bitrate=5472.1kbits/s speed=0.00672x    frame=  383 fps=0.4 q=36.0 size=    3888kB time=00:00:05.86 bitrate=5434.8kbits/s speed=0.00676x    frame=  384 fps=0.4 q=36.0 size=    3888kB time=00:00:05.88 bitrate=5416.3kbits/s speed=0.00677x    frame=  386 fps=0.4 q=36.0 size=    3888kB time=00:00:05.92 bitrate=5379.7kbits/s speed=0.00675x    frame=  387 fps=0.4 q=36.0 size=    3888kB time=00:00:05.94 bitrate=5361.6kbits/s speed=0.00675x    frame=  388 fps=0.4 q=36.0 size=    3888kB time=00:00:05.96 bitrate=5343.6kbits/s speed=0.00676x    frame=  389 fps=0.4 q=36.0 size=    3888kB time=00:00:05.98 bitrate=5325.7kbits/s speed=0.00674x    frame=  390 fps=0.4 q=36.0 size=    3888kB time=00:00:06.00 bitrate=5308.0kbits/s speed=0.00675x    frame=  391 fps=0.4 q=36.0 size=    3888kB time=00:00:06.02 bitrate=5290.4kbits/s speed=0.00676x    frame=  393 fps=0.4 q=36.0 size=    3888kB time=00:00:06.06 bitrate=5255.4kbits/s speed=0.00678x    frame=  394 fps=0.4 q=36.0 size=    3888kB time=00:00:06.08 bitrate=5238.2kbits/s speed=0.00678x    frame=  395 fps=0.4 q=36.0 size=    3888kB time=00:00:06.10 bitrate=5221.0kbits/s speed=0.00673x    frame=  396 fps=0.4 q=36.0 size=    3888kB time=00:00:06.12 bitrate=5203.9kbits/s speed=0.00675x    frame=  398 fps=0.4 q=36.0 size=    3888kB time=00:00:06.16 bitrate=5170.1kbits/s speed=0.00678x    frame=  399 fps=0.4 q=36.0 size=    3888kB time=00:00:06.18 bitrate=5153.4kbits/s speed=0.00678x    frame=  400 fps=0.4 q=36.0 size=    3888kB time=00:00:06.20 bitrate=5136.8kbits/s speed=0.00679x    frame=  401 fps=0.4 q=36.0 size=    3888kB time=00:00:06.22 bitrate=5120.3kbits/s speed=0.00675x    frame=  402 fps=0.4 q=36.0 size=    3888kB time=00:00:06.24 bitrate=5103.9kbits/s speed=0.00677x    frame=  403 fps=0.4 q=36.0 size=    3888kB time=00:00:06.26 bitrate=5087.6kbits/s speed=0.00674x    frame=  404 fps=0.4 q=36.0 size=    3888kB time=00:00:06.28 bitrate=5071.4kbits/s speed=0.00675x    frame=  405 fps=0.4 q=36.0 size=    3888kB time=00:00:06.30 bitrate=5055.3kbits/s speed=0.00676x    frame=  407 fps=0.4 q=36.0 size=    3888kB time=00:00:06.34 bitrate=5023.4kbits/s speed=0.00677x    frame=  408 fps=0.4 q=36.0 size=    3888kB time=00:00:06.36 bitrate=5007.6kbits/s speed=0.00678x    frame=  409 fps=0.4 q=36.0 size=    3888kB time=00:00:06.38 bitrate=4991.9kbits/s speed=0.00672x    frame=  413 fps=0.4 q=36.0 size=    3888kB time=00:00:06.46 bitrate=4930.1kbits/s speed=0.00678x    frame=  415 fps=0.4 q=36.0 size=    3888kB time=00:00:06.50 bitrate=4899.7kbits/s speed=0.00672x    frame=  416 fps=0.4 q=36.0 size=    3888kB time=00:00:06.52 bitrate=4884.7kbits/s speed=0.0067x    frame=  417 fps=0.4 q=36.0 size=    3888kB time=00:00:06.54 bitrate=4869.8kbits/s speed=0.00671x    frame=  418 fps=0.4 q=36.0 size=    3888kB time=00:00:06.56 bitrate=4854.9kbits/s speed=0.00671x    frame=  421 fps=0.4 q=36.0 size=    3888kB time=00:00:06.62 bitrate=4810.9kbits/s speed=0.00673x    frame=  422 fps=0.4 q=36.0 size=    3888kB time=00:00:06.64 bitrate=4796.4kbits/s speed=0.00668x    frame=  424 fps=0.4 q=36.0 size=    3888kB time=00:00:06.68 bitrate=4767.7kbits/s speed=0.00671x    frame=  425 fps=0.4 q=36.0 size=    3888kB time=00:00:06.70 bitrate=4753.5kbits/s speed=0.00672x    frame=  426 fps=0.4 q=36.0 size=    3888kB time=00:00:06.72 bitrate=4739.4kbits/s speed=0.00674x    frame=  427 fps=0.4 q=36.0 size=    3888kB time=00:00:06.74 bitrate=4725.3kbits/s speed=0.00664x    frame=  428 fps=0.4 q=36.0 size=    3888kB time=00:00:06.76 bitrate=4711.3kbits/s speed=0.00665x    frame=  429 fps=0.4 q=36.0 size=    3888kB time=00:00:06.78 bitrate=4697.4kbits/s speed=0.00666x    frame=  433 fps=0.4 q=36.0 size=    3888kB time=00:00:06.86 bitrate=4642.6kbits/s speed=0.00664x    frame=  435 fps=0.4 q=36.0 size=    3888kB time=00:00:06.90 bitrate=4615.7kbits/s speed=0.00667x    frame=  436 fps=0.4 q=36.0 size=    3888kB time=00:00:06.92 bitrate=4602.4kbits/s speed=0.00667x    frame=  437 fps=0.4 q=36.0 size=    3888kB time=00:00:06.94 bitrate=4589.1kbits/s speed=0.00668x    frame=  438 fps=0.4 q=36.0 size=    3888kB time=00:00:06.96 bitrate=4576.0kbits/s speed=0.00662x    frame=  439 fps=0.4 q=36.0 size=    3888kB time=00:00:06.98 bitrate=4562.8kbits/s speed=0.00662x    frame=  440 fps=0.4 q=36.0 size=    3888kB time=00:00:07.00 bitrate=4549.8kbits/s speed=0.00663x    frame=  442 fps=0.4 q=36.0 size=    3888kB time=00:00:07.04 bitrate=4524.0kbits/s speed=0.00666x    frame=  443 fps=0.4 q=36.0 size=    3888kB time=00:00:07.06 bitrate=4511.1kbits/s speed=0.00667x    frame=  444 fps=0.4 q=36.0 size=    3888kB time=00:00:07.08 bitrate=4498.4kbits/s speed=0.00662x    frame=  445 fps=0.4 q=36.0 size=    3888kB time=00:00:07.10 bitrate=4485.7kbits/s speed=0.00663x    frame=  446 fps=0.4 q=36.0 size=    3888kB time=00:00:07.12 bitrate=4473.1kbits/s speed=0.00663x    frame=  447 fps=0.4 q=36.0 size=    3888kB time=00:00:07.14 bitrate=4460.6kbits/s speed=0.00664x    frame=  448 fps=0.4 q=36.0 size=    3888kB time=00:00:07.16 bitrate=4448.1kbits/s speed=0.00658x    frame=  449 fps=0.4 q=36.0 size=    3888kB time=00:00:07.18 bitrate=4435.8kbits/s speed=0.00659x    frame=  450 fps=0.4 q=36.0 size=    3888kB time=00:00:07.20 bitrate=4423.4kbits/s speed=0.0066x    frame=  452 fps=0.4 q=36.0 size=    3888kB time=00:00:07.24 bitrate=4399.0kbits/s speed=0.00663x    frame=  453 fps=0.4 q=36.0 size=    3888kB time=00:00:07.26 bitrate=4386.9kbits/s speed=0.00663x    frame=  454 fps=0.4 q=36.0 size=    3888kB time=00:00:07.28 bitrate=4374.8kbits/s speed=0.00659x    frame=  455 fps=0.4 q=36.0 size=    3888kB time=00:00:07.30 bitrate=4362.9kbits/s speed=0.0066x    frame=  457 fps=0.4 q=36.0 size=    3888kB time=00:00:07.34 bitrate=4339.1kbits/s speed=0.00662x    frame=  458 fps=0.4 q=36.0 size=    3888kB time=00:00:07.36 bitrate=4327.3kbits/s speed=0.00655x    frame=  459 fps=0.4 q=36.0 size=    3888kB time=00:00:07.38 bitrate=4315.6kbits/s speed=0.00656x    frame=  460 fps=0.4 q=36.0 size=    3888kB time=00:00:07.40 bitrate=4303.9kbits/s speed=0.00657x    frame=  463 fps=0.4 q=36.0 size=    3888kB time=00:00:07.46 bitrate=4269.3kbits/s speed=0.00661x    frame=  464 fps=0.4 q=36.0 size=    3888kB time=00:00:07.48 bitrate=4257.9kbits/s speed=0.00656x    frame=  465 fps=0.4 q=36.0 size=    3888kB time=00:00:07.50 bitrate=4246.5kbits/s speed=0.00656x    frame=  468 fps=0.4 q=36.0 size=    3888kB time=00:00:07.56 bitrate=4212.8kbits/s speed=0.00653x    frame=  469 fps=0.4 q=36.0 size=    3888kB time=00:00:07.58 bitrate=4201.7kbits/s speed=0.00654x    frame=  470 fps=0.4 q=36.0 size=    3888kB time=00:00:07.60 bitrate=4190.7kbits/s speed=0.00655x    frame=  473 fps=0.4 q=36.0 size=    3888kB time=00:00:07.66 bitrate=4157.8kbits/s speed=0.0066x    frame=  474 fps=0.4 q=36.0 size=    3888kB time=00:00:07.68 bitrate=4147.0kbits/s speed=0.00651x    frame=  477 fps=0.4 q=36.0 size=    3888kB time=00:00:07.74 bitrate=4114.9kbits/s speed=0.00655x    frame=  479 fps=0.4 q=36.0 size=    3888kB time=00:00:07.78 bitrate=4093.7kbits/s speed=0.00658x    frame=  480 fps=0.4 q=36.0 size=    3888kB time=00:00:07.80 bitrate=4083.2kbits/s speed=0.00648x    frame=  481 fps=0.4 q=36.0 size=    3888kB time=00:00:07.82 bitrate=4072.8kbits/s speed=0.00649x    frame=  482 fps=0.4 q=36.0 size=    3888kB time=00:00:07.84 bitrate=4062.4kbits/s speed=0.0065x    frame=  486 fps=0.4 q=36.0 size=    3888kB time=00:00:07.92 bitrate=4021.4kbits/s speed=0.00647x    frame=  487 fps=0.4 q=36.0 size=    3888kB time=00:00:07.94 bitrate=4011.2kbits/s speed=0.00648x    frame=  488 fps=0.4 q=36.0 size=    3888kB time=00:00:07.96 bitrate=4001.2kbits/s speed=0.00649x    frame=  492 fps=0.4 q=36.0 size=    3888kB time=00:00:08.04 bitrate=3961.3kbits/s speed=0.00648x    frame=  493 fps=0.4 q=36.0 size=    3888kB time=00:00:08.06 bitrate=3951.5kbits/s speed=0.00649x    frame=  495 fps=0.4 q=36.0 size=    3888kB time=00:00:08.10 bitrate=3932.0kbits/s speed=0.00646x    frame=  496 fps=0.4 q=36.0 size=    3888kB time=00:00:08.12 bitrate=3922.3kbits/s speed=0.00647x    frame=  497 fps=0.4 q=36.0 size=    3888kB time=00:00:08.14 bitrate=3912.7kbits/s speed=0.00648x    frame=  499 fps=0.4 q=36.0 size=    3888kB time=00:00:08.18 bitrate=3893.6kbits/s speed=0.00651x    frame=  500 fps=0.4 q=36.0 size=    3888kB time=00:00:08.20 bitrate=3884.1kbits/s speed=0.00643x    frame=  500 fps=0.3 q=-1.0 Lsize=    8596kB time=00:00:09.94 bitrate=7083.4kbits/s speed=0.0064x    
video:8591kB audio:0kB subtitle:0kB other streams:0kB global headers:0kB muxing overhead: 0.050264%
bench: utime=6056.704s
bench: maxrss=6549524kB
[libx264 @ 0x43a4120] frame I:3     Avg QP:32.24  size:373753
[libx264 @ 0x43a4120] frame P:45    Avg QP:34.68  size: 59668
[libx264 @ 0x43a4120] frame B:452   Avg QP:37.98  size: 11041
[libx264 @ 0x43a4120] consecutive B-frames:  0.6%  0.0%  0.0%  0.0%  0.0%  0.0%  1.4%  3.2%  7.2% 30.0% 19.8%  9.6%  5.2% 14.0%  9.0%  0.0%  0.0%
[libx264 @ 0x43a4120] mb I  I16..4: 30.4% 62.6%  7.0%
[libx264 @ 0x43a4120] mb P  I16..4:  0.1%  0.2%  0.0%  P16..4: 40.6% 21.8%  4.0%  0.4%  0.0%    skip:33.0%
[libx264 @ 0x43a4120] mb B  I16..4:  0.0%  0.0%  0.0%  B16..8: 34.7%  2.1%  0.0%  direct: 0.0%  skip:63.1%  L0:50.6% L1:49.4% BI: 0.1%
[libx264 @ 0x43a4120] final ratefactor: 27.83
[libx264 @ 0x43a4120] 8x8 transform intra:63.1% inter:69.3%
[libx264 @ 0x43a4120] direct mvs  spatial:98.7% temporal:1.3%
[libx264 @ 0x43a4120] coded y,uvDC,uvAC intra: 75.5% 52.4% 32.3% inter: 0.9% 0.7% 0.0%
[libx264 @ 0x43a4120] i16 v,h,dc,p:  9% 28%  5% 59%
[libx264 @ 0x43a4120] i8 v,h,dc,ddl,ddr,vr,hd,vl,hu:  3%  4%  2% 15% 22% 14% 20%  9% 11%
[libx264 @ 0x43a4120] i4 v,h,dc,ddl,ddr,vr,hd,vl,hu:  2%  3%  3% 16% 19% 13% 19%  9% 15%
[libx264 @ 0x43a4120] i8c dc,h,v,p: 20% 54% 15% 10%
[libx264 @ 0x43a4120] Weighted P-Frames: Y:4.4% UV:2.2%
[libx264 @ 0x43a4120] ref P L0: 58.6% 19.1%  9.7%  2.7%  2.2%  2.2%  1.9%  0.5%  0.4%  0.5%  0.4%  0.4%  0.4%  0.4%  0.4%  0.1%
[libx264 @ 0x43a4120] ref B L0: 90.0%  3.6%  3.5%  0.7%  0.6%  0.5%  0.5%  0.1%  0.1%  0.1%  0.1%  0.1%  0.1%  0.1%  0.0%
[libx264 @ 0x43a4120] ref B L1: 94.8%  5.2%
[libx264 @ 0x43a4120] kb/s:7037.54
